<?xml version="1.0" encoding="UTF-8"?>
<svg width="30px" height="30px" viewBox="0 0 30 30" version="1.1" xmlns="http://www.w3.org/2000/svg" xmlns:xlink="http://www.w3.org/1999/xlink">
    <!-- Generator: Sketch 52.2 (67145) - http://www.bohemiancoding.com/sketch -->
    <title>Recorder 28x28</title>
    <desc>Created with Sketch.</desc>
    <g id="Recorder-28x28" stroke="none" stroke-width="1" fill="none" fill-rule="evenodd">
        <g id="audio_record" transform="translate(5.000000, 1.000000)" fill="#000000">
            <g id="Group">
                <path d="M9.744,22.4565657 C4.48,22.4565657 0.112,18.1575758 0.056,12.8969697 L0.056,12.7555556 C0.056,12.3030303 0.42,11.9353535 0.868,11.9353535 C1.316,11.9353535 1.68,12.3030303 1.68,12.7555556 L1.68,12.8686869 C1.736,17.2525253 5.348,20.8161616 9.744,20.8161616 C14.42,20.8161616 17.752,17.9030303 17.808,13.7171717 C17.808,13.6323232 17.808,11.9919192 17.808,11.9353535 C17.808,11.4828283 18.172,11.1151515 18.62,11.1151515 C19.068,11.1151515 19.432,11.4828283 19.432,11.9353535 C19.432,11.9919192 19.432,13.6888889 19.432,13.7454545 C19.348,18.8080808 15.288,22.4565657 9.744,22.4565657 Z" id="Path"></path>
                <path d="M9.744,27.2646465 C9.296,27.2646465 8.932,26.8969697 8.932,26.4444444 L8.932,24.8888889 C8.932,24.4363636 9.296,24.0686869 9.744,24.0686869 C10.192,24.0686869 10.556,24.4363636 10.556,24.8888889 L10.556,26.4444444 C10.556,26.8969697 10.192,27.2646465 9.744,27.2646465 Z" id="Path"></path>
                <path d="M11.816,27.9434343 L7.7,27.9434343 C7.252,27.9434343 6.888,27.5757576 6.888,27.1232323 C6.888,26.6707071 7.252,26.3030303 7.7,26.3030303 L11.816,26.3030303 C12.264,26.3030303 12.628,26.6707071 12.628,27.1232323 C12.628,27.5757576 12.264,27.9434343 11.816,27.9434343 Z" id="Path"></path>
                <path d="M9.744,18.4121212 C6.664,18.4121212 4.172,15.9232323 4.172,12.840404 L4.172,5.7979798 C4.172,2.71515152 6.664,0.226262626 9.744,0.226262626 C12.824,0.226262626 15.316,2.71515152 15.316,5.7979798 L15.316,12.840404 C15.316,15.9232323 12.824,18.4121212 9.744,18.4121212 Z M9.744,1.83838384 C7.56,1.83838384 5.796,3.62020202 5.796,5.76969697 L5.796,12.8121212 C5.796,14.989899 7.56,16.7434343 9.744,16.7434343 C11.928,16.7434343 13.72,15.0181818 13.72,12.840404 L13.72,5.7979798 C13.72,3.62020202 11.928,1.83838384 9.744,1.83838384 Z" id="Shape" fill-rule="nonzero"></path>
            </g>
        </g>
    </g>
</svg>